<svg xmlns="http://www.w3.org/2000/svg" xml:space="preserve" width="512" height="512" id="spider">
  <path fill="#AD5A58" d="M342.863 224.917c-6.025-.625-10.403-6.017-9.777-12.042L344.809 99.98c.626-6.024 6.017-10.401 12.041-9.776 6.025.625 10.403 6.017 9.777 12.042l-11.723 112.895c-.626 6.024-6.016 10.401-12.041 9.776z"></path>
  <path fill="#DD8378" d="M348.666 238.351c-6.178-.36-10.84-5.729-10.299-11.895 2.097-23.918 8.535-79.915 24.738-111.952 3.97-7.85 11.63-13.049 20.552-13.731 6.569-.502 13.033 1.941 18.134 6.111 36.877 30.145 70.035 48.785 91.396 51.834 5.02.716 8.852 4.81 9.296 9.861.612 6.976-5.393 12.846-12.324 11.845-34.782-5.023-78.339-36.941-102.947-57.126-.873-.714-1.776-.707-2.378-.585-.543.114-1.544.485-2.152 1.692-14.389 28.45-20.438 81.385-22.441 103.948-.526 5.917-5.645 10.344-11.575 9.998z"></path>
  <path fill="#FFB7A5" d="M486.587 267.809c-2.135 7.302-11.022 10.453-17.008 5.757-7.709-6.049-14.753-15.346-21.047-27.805-6.595-13.035-11.28-27.642-14.331-44.644-6.447-35.962-20.503-55.158-29.499-64.155a5.723 5.723 0 0 0-4.572-1.651c-1.603.142-3.104.91-4.062 2.202-18.461 24.915-23.581 79.481-24.303 108.617-.146 5.888-4.886 10.605-10.774 10.7-6.219.101-11.287-4.973-11.132-11.191.668-26.655 4.984-92.765 30.844-124.073 4.47-5.413 11.025-8.79 17.987-9.269 6.999-.51 13.708 1.871 18.885 6.623 13.198 12.118 30.547 35.54 38.22 78.327 2.666 14.874 6.694 27.506 12.313 38.621 4.736 9.371 9.829 16.314 14.795 20.284 3.479 2.779 4.944 7.345 3.695 11.618l-.011.039z"></path>
  <path fill="#A99FF1" d="M348.906 249.921c3.551-30.668 14.247-189.711-139.634-227.66-35.696-8.803-73.433-4.854-105.769 12.642C80.76 47.211 56.421 66.909 40.332 98.225c-24.339 47.373-21.471 104.79 7.479 149.493 22.937 35.417 66.017 70.769 146.591 70.51 0 0 60.812-1.598 98.341-1.772a36.868 36.868 0 0 0 32.121-19.067l21.063-38.179a25.164 25.164 0 0 0 2.979-9.289z"></path>
  <path fill="#E0F2FF" d="M209.272 22.262zM194.065 19.329zM177.63 17.864zM185.992 18.394zM201.821 20.63zM305.69 100.131l-6.655-8.446a25.285 25.285 0 0 1-5.439-16.253 126.33 126.33 0 0 0-.116-8.848c-18.462-17.638-42.736-32.37-74.537-41.69 2.761.816 5.478 1.664 8.133 2.556.903 12.835-5.267 24.351-15.829 27.66-12.849 4.025-27.307-5.614-32.293-21.531-1.683-5.372-2.045-10.762-1.327-15.714-25.653-.905-51.24 4.659-74.122 17.04C84.549 45.161 64.502 60.58 49.03 83.553c-1.2 22.985 4.786 59.501 49.69 77.701 0 0 48.161 15.361 81.568-4.256 8.428-4.947 19.035-4.265 27.192 1.116l15.349 10.125c6.699 4.418 14.69 6.599 22.678 5.832 2.522-.242 5.153-.714 7.717-1.537 4.64-1.488 6.059-7.374 2.604-10.809l-16.016-15.926c-4.017-3.994-2.967-10.744 2.072-13.33l2.498-1.281a8.338 8.338 0 0 1 9.434 1.267l35.648 32.616a8.99 8.99 0 1 0 13.139-12.184l-27.232-34.679c-2.445-3.115-2.354-7.488.188-10.524l.131-.156c3.166-3.8 8.964-3.959 12.386-.388l8.835 9.221c4.053 4.23 11.196 1.961 12.065-3.832a16.155 16.155 0 0 0-3.286-12.398zm-168.861 13.078c-19.011 0-34.423-12.44-34.423-27.786s15.412-27.787 34.423-27.787 34.422 12.44 34.422 27.787-15.411 27.786-34.422 27.786zm89.15-21.805c-2.395 2.922-6.096 5.74-11.814 7.416-6.2 1.816-12.681-2.035-13.793-8.399-.447-2.556-.606-5.417-.135-8.349.857-5.328 5.665-9.133 11.057-8.906 2.753.115 5.957.475 9.055 1.345 7.297 2.05 10.434 11.03 5.63 16.893zM217.934 24.596c.339.098.672.199 1.009.298-.337-.1-.672-.2-1.009-.298zM185.2 18.324zM192.638 19.14c.476.064.952.121 1.428.189-.476-.067-.953-.126-1.428-.189zM177.626 17.864h.004zM200.126 20.329c.564.104 1.131.191 1.695.302-.564-.11-1.131-.199-1.695-.302z"></path>
  <path fill="#696AAF" d="M250.625 37.037c8.321 23.694 22.934 75.135 15.08 126.901-5.578 36.774-26.627 69.32-57.016 90.767-25.32 17.871-63.359 37.528-110.846 40.689 23.922 13.758 55.319 22.967 96.559 22.834 0 0 60.812-1.598 98.341-1.772a36.87 36.87 0 0 0 32.121-19.067l21.063-38.18a25.153 25.153 0 0 0 2.979-9.288c3.197-27.603 12.155-159.185-98.281-212.884z"></path>
  <path fill="#BBC9FC" d="m267.615 145.079 21.85 19.992a8.99 8.99 0 1 0 13.139-12.184l-27.232-34.679c-2.445-3.115-2.354-7.488.188-10.524l.131-.156c3.166-3.8 8.964-3.959 12.386-.388l8.835 9.221c4.053 4.23 11.196 1.961 12.065-3.832a16.155 16.155 0 0 0-3.286-12.397l-6.655-8.446a25.285 25.285 0 0 1-5.439-16.253 126.33 126.33 0 0 0-.116-8.848c-11.772-11.247-25.918-21.308-42.854-29.547 7.305 20.804 19.449 63.002 16.988 108.041z"></path>
  <path fill="#C0DAFF" d="M384.518 325.547s6.528 22.035 34.421 26.792c3.872.661 6.774-3.536 4.817-6.941L410.65 322.59l-26.132 2.957zM430.991 287.423s19.821 5.815 24.164 30.874c.603 3.479-3.161 6.098-6.228 4.348l-20.532-11.727 2.596-23.495z"></path>
  <path fill="#A99FF1" d="M300.747 299.244c2.723-14.932 13.108-49.464 51.364-56.419 12.321-2.24 25.935-2.712 39.407 1.685 15.104 4.929 35.29 15.775 44.925 37.964 4.731 10.897.033 26.117-8.35 34.536-10.788 10.837-31.794 22.221-71.188 16.691 0 0-34.664-4.801-52.126-21.696-3.396-3.287-4.88-8.11-4.032-12.761z"></path>
  <path fill="#696AAF" d="M436.443 282.473c-9.635-22.188-29.82-33.034-44.925-37.963-8.499-2.773-17.052-3.604-25.303-3.28 14.08 11.646 27.09 85.931-43.95 82.208 16.607 7.736 34.641 10.264 34.641 10.264 39.394 5.529 60.399-5.854 71.188-16.691 8.383-8.419 13.081-23.64 8.349-34.538z"></path>
  <circle cx="389.461" cy="309.224" r="12.365" fill="#FFF"></circle>
  <circle cx="418.447" cy="290.309" r="10.912" fill="#FFF"></circle>
  <circle cx="356.072" cy="295.83" r="6.212" fill="#FFF"></circle>
  <circle cx="407.536" cy="265.635" r="4.873" fill="#FFF"></circle>
  <path fill="#AD5A58" d="M9.546 318.073a10.914 10.914 0 0 1 9.127-12.032c38.502-6.146 95.489-53.869 115.882-73.516a107.545 107.545 0 0 1 28.563-19.048c15.242-6.966 32.112-7.805 47.504-2.374 48.883 17.273 69.198 74.244 75.873 99.054 1.672 6.216-2.315 12.515-8.647 13.669a10.983 10.983 0 0 1-12.577-7.932c-5.769-21.171-23.079-70.37-61.957-84.104-9.851-3.481-21.183-2.881-31.078 1.639-8.36 3.821-15.967 8.88-22.614 15.042-7.986 7.695-74.781 70.69-127.583 79.207-6.117.986-11.787-3.451-12.493-9.605z"></path>
  <path fill="#DD8378" d="M73.862 417.182c-1.022-4.598 1.045-9.293 5.107-11.676 30.661-17.98 73.415-105.273 94.733-160.416 3.999-10.907 8.98-20.683 14.739-28.877 12.885-18.345 37.576-23.25 56.204-11.179 37.609 24.387 52.193 84.087 56.816 109.404 1.139 6.239-3.199 12.136-9.497 12.892a10.966 10.966 0 0 1-12.107-8.906c-4.116-22.349-17.549-74.017-47.88-93.681-8.686-5.634-19.516-4.567-25.586 4.08-4.663 6.634-8.754 14.706-12.161 24-6.036 15.614-55.773 141.278-104.213 171.309-6.287 3.898-14.55.272-16.155-6.95z"></path>
  <path fill="#FFB7A5" d="M192.607 490.936c-3.439-3.563-4.125-9.039-1.46-13.213 19.24-30.135 29.056-116.15 31.649-184.943.296-7.884.943-14.981 1.978-21.69 3.378-21.902 9.973-38.662 19.622-49.884 4.918-5.719 11.508-9.927 19.002-10.789 12.359-1.421 23.811 5.253 28.984 15.994 11.442 23.767 18.774 71.169 21.877 90.199.998 6.114-3.232 11.845-9.373 12.666-5.881.786-11.321-3.212-12.281-9.067-2.935-17.918-9.817-63.156-19.988-84.279-1.358-2.824-3.851-3.513-4.859-3.681-1.169-.186-3.413-.218-5.332 1.735-5.27 5.377-12.317 16.759-15.973 40.448-.902 5.866-1.471 12.14-1.734 19.173-1.76 46.638-8.617 152.373-34.95 195.418-3.732 6.098-12.195 7.057-17.162 1.913z"></path>
</svg>
